# xmcd
#
# Track frame offsets:
# 150
# 10488
# 17195
# 29440
# 41543
# 51790
# 63446
# 75936
# 88864
# 100540
# 112517
# 125838
# 137473
# 148854
# 162248
# 174338
# 186219
# 199679
# 211977
# 224122
# 237004
# 248497
# 261026
# 272946
# 284885
# 296793
#
# Disc length: 4122 seconds
#
# Revision: 0
# Processed by: cddbd v1.4PL0 Copyright (c) Steve Scherf et al.
# Submitted via: Audion 3.0.2 (http://www.panic.com/audion/)
#
DISCID=8010181a
DTITLE=Cooley, Spade - Swingin' The Devil's Dream [CD1]
DYEAR=1900
DGENRE=
TTITLE0=Tell Me Why
TTITLE1=Haas Stomp
TTITLE2=Time Changes Everything
TTITLE3=Sweethearts Or Strangers
TTITLE4=Worried Mind
TTITLE5=You Waited Too Long
TTITLE6=Forgive Me One More Time
TTITLE7=Shame On You
TTITLE8=I Guess I've Been Dreaming Again
TTITLE9=I've Taken All I'm Gonna Take From You
TTITLE10=A Pair Of Broken Hearts
TTITLE11=Troubled Over You
TTITLE12=You'll Rue The Day
TTITLE13=You Can't Break My Heart
TTITLE14=Detour
TTITLE15=Crazy Cause I Love You
TTITLE16=Hide Your Face
TTITLE17=I Can't Help The Way You Feel
TTITLE18=Three Way Boogie
TTITLE19=Oklahoma Stomp
TTITLE20=Cow Bell Polka
TTITLE21=Steel Guitar Rag
TTITLE22=You Better Do It Now
TTITLE23=You Never Miss The Water
TTITLE24=Spadella
TTITLE25=Swingin' The Devil's Dream
EXTD=
EXTT0=
EXTT1=
EXTT2=
EXTT3=
EXTT4=
EXTT5=
EXTT6=
EXTT7=
EXTT8=
EXTT9=
EXTT10=
EXTT11=
EXTT12=
EXTT13=
EXTT14=
EXTT15=
EXTT16=
EXTT17=
EXTT18=
EXTT19=
EXTT20=
EXTT21=
EXTT22=
EXTT23=
EXTT24=
EXTT25=
PLAYORDER=
